HIERARCHY
ROOT Hip
{
	OFFSET	0.0000	0.0000	0.0000
	CHANNELS 6 Xposition Yposition Zposition Xrotation Yrotation Zrotation
	JOINT LowerSpine
	{
		OFFSET	0.0000	10.0380	-5.4320
		CHANNELS 3 Xrotation Yrotation Zrotation
		JOINT MiddleSpine
		{
			OFFSET	0.0000	9.1604	0.4785
			CHANNELS 3 Xrotation Yrotation Zrotation
			JOINT Chest
			{
				OFFSET	0.0000	11.3350	-2.5231
				CHANNELS 3 Xrotation Yrotation Zrotation
				JOINT Neck
				{
					OFFSET	0.0000	25.5429	-0.5312
					CHANNELS 3 Xrotation Yrotation Zrotation
					JOINT Head
					{
						OFFSET	0.0000	14.4244	3.9234
						CHANNELS 3 Xrotation Yrotation Zrotation
						End Site
						{
							OFFSET	0.0001	20.1546	0.6017
						}
					}
				}
				JOINT LClavicle
				{
					OFFSET	2.5788	24.6502	8.4453
					CHANNELS 3 Xrotation Yrotation Zrotation
					JOINT LShoulder
					{
						OFFSET	15.0655	3.5357	-5.7211
						CHANNELS 3 Xrotation Yrotation Zrotation
						JOINT LForearm
						{
							OFFSET	32.0022	-0.1137	-0.2773
							CHANNELS 3 Xrotation Yrotation Zrotation
							JOINT LHand
							{
								OFFSET	26.6966	0.0775	-0.1599
								CHANNELS 3 Xrotation Yrotation Zrotation
								JOINT LFinger1
								{
									OFFSET	10.3468	0.9049	2.8738
									CHANNELS 3 Xrotation Yrotation Zrotation
									JOINT LFinger11
									{
										OFFSET	3.8702	-0.9438	0.6820
										CHANNELS 3 Xrotation Yrotation Zrotation
										JOINT LFinger12
										{
											OFFSET	2.6421	-0.6446	0.4657
											CHANNELS 3 Xrotation Yrotation Zrotation
											End Site
											{
												OFFSET	1.8801	-0.5613	0.3050
											}
										}
									}
								}
								JOINT LFinger2
								{
									OFFSET	10.5013	1.0450	0.2502
									CHANNELS 3 Xrotation Yrotation Zrotation
									JOINT LFinger21
									{
										OFFSET	4.7853	0.0133	-0.0283
										CHANNELS 3 Xrotation Yrotation Zrotation
										JOINT LFinger22
										{
											OFFSET	2.6524	0.0081	-0.0161
											CHANNELS 3 Xrotation Yrotation Zrotation
											End Site
											{
												OFFSET	2.3824	-0.1682	0.0032
											}
										}
									}
								}
								JOINT LFinger3
								{
									OFFSET	9.9521	0.6973	-2.3544
									CHANNELS 3 Xrotation Yrotation Zrotation
									JOINT LFinger31
									{
										OFFSET	4.3422	-0.2199	-0.2718
										CHANNELS 3 Xrotation Yrotation Zrotation
										JOINT LFinger32
										{
											OFFSET	2.4743	-0.1245	-0.1555
											CHANNELS 3 Xrotation Yrotation Zrotation
											End Site
											{
												OFFSET	2.1878	-0.2690	-0.1034
											}
										}
									}
								}
								JOINT LFinger4
								{
									OFFSET	9.2351	-0.7019	-4.0662
									CHANNELS 3 Xrotation Yrotation Zrotation
									JOINT LFinger41
									{
										OFFSET	2.6709	-0.5570	-0.7373
										CHANNELS 3 Xrotation Yrotation Zrotation
										JOINT LFinger42
										{
											OFFSET	1.9585	-0.4079	-0.5410
											CHANNELS 3 Xrotation Yrotation Zrotation
											End Site
											{
												OFFSET	1.7384	-0.4776	-0.3988
											}
										}
									}
								}
								JOINT LFinger0
								{
									OFFSET	2.1403	-1.6200	1.6226
									CHANNELS 3 Xrotation Yrotation Zrotation
									JOINT LFinger01
									{
										OFFSET	3.9850	-1.3089	3.0046
										CHANNELS 3 Xrotation Yrotation Zrotation
										JOINT LFinger02
										{
											OFFSET	2.6241	-0.9389	1.8906
											CHANNELS 3 Xrotation Yrotation Zrotation
											End Site
											{
												OFFSET	1.9297	-0.6643	1.3214
											}
										}
									}
								}
							}
						}
					}
				}
				JOINT RClavicle
				{
					OFFSET	-2.5788	24.6502	8.4453
					CHANNELS 3 Xrotation Yrotation Zrotation
					JOINT RShoulder
					{
						OFFSET	-15.0682	3.5364	-5.7221
						CHANNELS 3 Xrotation Yrotation Zrotation
						JOINT RForearm
						{
							OFFSET	-32.0022	-0.1136	-0.2773
							CHANNELS 3 Xrotation Yrotation Zrotation
							JOINT RHand
							{
								OFFSET	-26.6966	0.0775	-0.1599
								CHANNELS 3 Xrotation Yrotation Zrotation
								JOINT RFinger1
								{
									OFFSET	-10.3468	0.9049	2.8738
									CHANNELS 3 Xrotation Yrotation Zrotation
									JOINT RFinger11
									{
										OFFSET	-3.8702	-0.9438	0.6820
										CHANNELS 3 Xrotation Yrotation Zrotation
										JOINT RFinger12
										{
											OFFSET	-2.6421	-0.6446	0.4657
											CHANNELS 3 Xrotation Yrotation Zrotation
											End Site
											{
												OFFSET	-1.8801	-0.5613	0.3050
											}
										}
									}
								}
								JOINT RFinger2
								{
									OFFSET	-10.5013	1.0450	0.2502
									CHANNELS 3 Xrotation Yrotation Zrotation
									JOINT RFinger21
									{
										OFFSET	-4.7853	0.0134	-0.0283
										CHANNELS 3 Xrotation Yrotation Zrotation
										JOINT RFinger22
										{
											OFFSET	-2.6524	0.0081	-0.0161
											CHANNELS 3 Xrotation Yrotation Zrotation
											End Site
											{
												OFFSET	-2.3824	-0.1682	0.0032
											}
										}
									}
								}
								JOINT RFinger3
								{
									OFFSET	-9.9521	0.6973	-2.3544
									CHANNELS 3 Xrotation Yrotation Zrotation
									JOINT RFinger31
									{
										OFFSET	-4.3422	-0.2198	-0.2718
										CHANNELS 3 Xrotation Yrotation Zrotation
										JOINT RFinger32
										{
											OFFSET	-2.4743	-0.1245	-0.1555
											CHANNELS 3 Xrotation Yrotation Zrotation
											End Site
											{
												OFFSET	-2.1878	-0.2690	-0.1034
											}
										}
									}
								}
								JOINT RFinger4
								{
									OFFSET	-9.2351	-0.7019	-4.0662
									CHANNELS 3 Xrotation Yrotation Zrotation
									JOINT RFinger41
									{
										OFFSET	-2.6709	-0.5570	-0.7373
										CHANNELS 3 Xrotation Yrotation Zrotation
										JOINT RFinger42
										{
											OFFSET	-1.9585	-0.4079	-0.5410
											CHANNELS 3 Xrotation Yrotation Zrotation
											End Site
											{
												OFFSET	-1.7384	-0.4776	-0.3988
											}
										}
									}
								}
								JOINT RFinger0
								{
									OFFSET	-2.1403	-1.6200	1.6226
									CHANNELS 3 Xrotation Yrotation Zrotation
									JOINT RFinger01
									{
										OFFSET	-3.9850	-1.3089	3.0046
										CHANNELS 3 Xrotation Yrotation Zrotation
										JOINT RFinger02
										{
											OFFSET	-2.6241	-0.9389	1.8906
											CHANNELS 3 Xrotation Yrotation Zrotation
											End Site
											{
												OFFSET	-1.9297	-0.6643	1.3214
											}
										}
									}
								}
							}
						}
					}
				}
			}
		}
	}
	JOINT RThigh
	{
		OFFSET	-10.7382	4.5375	-0.8851
		CHANNELS 3 Xrotation Yrotation Zrotation
		JOINT RShin
		{
			OFFSET	-0.8592	-46.7061	0.0000
			CHANNELS 3 Xrotation Yrotation Zrotation
			JOINT RFoot
			{
				OFFSET	0.0000	-45.8625	0.0000
				CHANNELS 3 Xrotation Yrotation Zrotation
				JOINT RToe
				{
					OFFSET	0.0000	-5.0407	10.5408
					CHANNELS 3 Xrotation Yrotation Zrotation
					End Site
					{
						OFFSET	0.0000	0.0000	7.0714
					}
				}
			}
		}
	}
	JOINT LThigh
	{
		OFFSET	10.7381	4.5378	-0.8851
		CHANNELS 3 Xrotation Yrotation Zrotation
		JOINT LShin
		{
			OFFSET	0.8593	-46.7065	0.0000
			CHANNELS 3 Xrotation Yrotation Zrotation
			JOINT LFoot
			{
				OFFSET	0.0000	-45.8626	0.0000
				CHANNELS 3 Xrotation Yrotation Zrotation
				JOINT LToe
				{
					OFFSET	0.0000	-5.0407	10.5408
					CHANNELS 3 Xrotation Yrotation Zrotation
					End Site
					{
						OFFSET	0.0000	0.0000	7.0714
					}
				}
			}
		}
	}
}
MOTION
Frames:	6
Frame Time: 0.0333333000
	4.5531	97.3234	-5.2130	-3.371688	-6.531239	-4.324792	0.000000	0.000000	0.000000	2.719033	0.932340	0.741599	9.022526	3.234276	2.295849	0.000000	0.000000	0.000000	0.000000	0.000000	0.000000	0.000000	0.000000	-13.646690	5.957537	-25.746910	-51.314550	-4.280670	-30.434100	-0.003946	0.000000	0.000000	0.000000	0.000000	0.000000	0.000000	0.000000	0.000000	0.000000	0.000000	0.000000	0.000000	0.000000	0.000000	0.000000	0.000000	0.000000	0.000000	0.000000	0.000000	0.000000	0.000000	0.000000	0.000000	0.000000	0.000000	0.000000	0.000000	0.000000	0.000000	0.000000	0.000000	0.000000	0.000000	0.000000	0.000000	0.000000	0.000000	0.000000	0.000000	0.000000	0.000000	0.000000	0.000000	0.000000	0.000000	0.000000	0.000000	0.000000	0.000000	12.073080	7.252270	19.942270	45.702880	-4.377985	32.709050	0.007292	0.000000	0.000000	0.000000	0.000000	0.000000	0.000000	0.000000	0.000000	0.000000	0.000000	0.000000	0.000000	0.000000	0.000000	0.000000	0.000000	0.000000	0.000000	0.000000	0.000000	0.000000	0.000000	0.000000	0.000000	0.000000	0.000000	0.000000	0.000000	0.000000	0.000000	0.000000	0.000000	0.000000	0.000000	0.000000	0.000000	0.000000	0.000000	0.000000	0.000000	0.000000	0.000000	0.000000	0.000000	0.000000	0.000000	0.000000	0.000000	-12.618640	-2.211173	2.477206	13.649010	-1.985999	0.506991	1.116387	-0.796397	-0.367669	0.000004	0.000000	0.000000	-0.212980	-0.038489	2.642447	15.901810	0.234039	-0.551636	-4.626922	1.348695	0.714074	0.000001	0.000000	0.000000
	4.6936	97.4883	-6.0963	-3.425002	-7.004121	-4.487127	0.000000	0.000000	0.000000	2.715114	0.909082	0.752950	9.012948	3.180667	2.326509	0.000000	0.000000	0.000000	0.000000	0.000000	0.000000	0.000000	0.000000	-13.650550	6.114696	-25.109330	-51.672980	-4.520272	-30.296480	-0.001190	0.000000	0.000000	0.000000	0.000000	0.000000	0.000000	0.000000	0.000000	0.000000	0.000000	0.000000	0.000000	0.000000	0.000000	0.000000	0.000000	0.000000	0.000000	0.000000	0.000000	0.000000	0.000000	0.000000	0.000000	0.000000	0.000000	0.000000	0.000000	0.000000	0.000000	0.000000	0.000000	0.000000	0.000000	0.000000	0.000000	0.000000	0.000000	0.000000	0.000000	0.000000	0.000000	0.000000	0.000000	0.000000	0.000000	0.000000	0.000000	0.000000	0.000000	12.080410	7.091611	20.504420	45.780600	-4.310285	32.063420	0.007694	0.000000	0.000000	0.000000	0.000000	0.000000	0.000000	0.000000	0.000000	0.000000	0.000000	0.000000	0.000000	0.000000	0.000000	0.000000	0.000000	0.000000	0.000000	0.000000	0.000000	0.000000	0.000000	0.000000	0.000000	0.000000	0.000000	0.000000	0.000000	0.000000	0.000000	0.000000	0.000000	0.000000	0.000000	0.000000	0.000000	0.000000	0.000000	0.000000	0.000000	0.000000	0.000000	0.000000	0.000000	0.000000	0.000000	0.000000	0.000000	-13.108860	-0.800994	2.456618	17.192670	-0.890376	0.138471	0.480611	-0.551612	-0.259042	0.000004	0.000000	0.000000	-0.510690	-0.024251	2.586789	15.562350	0.276789	-0.372659	-3.852274	1.879654	0.978038	0.000001	0.000000	0.000000
	4.7111	97.5947	-6.8234	-3.571958	-7.072454	-4.661846	0.000000	0.000000	0.000000	2.713475	0.897205	0.758026	9.004137	3.121267	2.357128	0.000000	0.000000	0.000000	0.000000	0.000000	0.000000	0.000000	0.000000	-13.664710	6.563952	-24.927010	-51.611890	-4.216108	-30.231370	-0.005172	0.000000	0.000000	0.000000	0.000000	0.000000	0.000000	0.000000	0.000000	0.000000	0.000000	0.000000	0.000000	0.000000	0.000000	0.000000	0.000000	0.000000	0.000000	0.000000	0.000000	0.000000	0.000000	0.000000	0.000000	0.000000	0.000000	0.000000	0.000000	0.000000	0.000000	0.000000	0.000000	0.000000	0.000000	0.000000	0.000000	0.000000	0.000000	0.000000	0.000000	0.000000	0.000000	0.000000	0.000000	0.000000	0.000000	0.000000	0.000000	0.000000	0.000000	12.087680	7.027767	20.458810	46.123280	-4.471101	31.586930	0.005933	0.000000	0.000000	0.000000	0.000000	0.000000	0.000000	0.000000	0.000000	0.000000	0.000000	0.000000	0.000000	0.000000	0.000000	0.000000	0.000000	0.000000	0.000000	0.000000	0.000000	0.000000	0.000000	0.000000	0.000000	0.000000	0.000000	0.000000	0.000000	0.000000	0.000000	0.000000	0.000000	0.000000	0.000000	0.000000	0.000000	0.000000	0.000000	0.000000	0.000000	0.000000	0.000000	0.000000	0.000000	0.000000	0.000000	0.000000	0.000000	-13.399010	0.258434	2.512976	21.687870	-0.084646	-0.099343	-0.194900	-0.840649	-0.404788	0.000004	0.000000	0.000000	-0.873840	-0.015622	2.684543	15.694340	0.307213	-0.260577	-3.373713	2.095579	1.078875	0.000001	0.000000	0.000000
	4.6658	97.6093	-7.4044	-3.724935	-6.791885	-4.780018	0.000000	0.000000	0.000000	2.711863	0.885139	0.763082	8.996080	3.056887	2.387502	0.000000	0.000000	0.000000	0.000000	0.000000	0.000000	0.000000	0.000000	-13.678070	7.101736	-25.078330	-51.401000	-3.648919	-30.044480	-0.008565	0.000000	0.000000	0.000000	0.000000	0.000000	0.000000	0.000000	0.000000	0.000000	0.000000	0.000000	0.000000	0.000000	0.000000	0.000000	0.000000	0.000000	0.000000	0.000000	0.000000	0.000000	0.000000	0.000000	0.000000	0.000000	0.000000	0.000000	0.000000	0.000000	0.000000	0.000000	0.000000	0.000000	0.000000	0.000000	0.000000	0.000000	0.000000	0.000000	0.000000	0.000000	0.000000	0.000000	0.000000	0.000000	0.000000	0.000000	0.000000	0.000000	0.000000	12.102790	7.194214	19.778200	46.500090	-4.702795	31.815360	0.002711	0.000000	0.000000	0.000000	0.000000	0.000000	0.000000	0.000000	0.000000	0.000000	0.000000	0.000000	0.000000	0.000000	0.000000	0.000000	0.000000	0.000000	0.000000	0.000000	0.000000	0.000000	0.000000	0.000000	0.000000	0.000000	0.000000	0.000000	0.000000	0.000000	0.000000	0.000000	0.000000	0.000000	0.000000	0.000000	0.000000	0.000000	0.000000	0.000000	0.000000	0.000000	0.000000	0.000000	0.000000	0.000000	0.000000	0.000000	0.000000	-13.393020	0.567330	2.474364	26.291660	0.081549	-0.160282	-0.607851	-1.109792	-0.537820	0.000004	0.000000	0.000000	-1.254053	-0.010769	2.834592	16.038220	0.327647	-0.214106	-3.246995	2.056890	1.056191	0.000001	0.000000	0.000000
	4.5985	97.5724	-7.8304	-3.883260	-6.331213	-4.800668	0.000000	0.000000	0.000000	2.708797	0.857895	0.773440	8.988754	2.988450	2.417431	0.000000	0.000000	0.000000	0.000000	0.000000	0.000000	0.000000	0.000000	-13.692670	7.387900	-25.171420	-51.508420	-3.385318	-29.656700	-0.007096	0.000000	0.000000	0.000000	0.000000	0.000000	0.000000	0.000000	0.000000	0.000000	0.000000	0.000000	0.000000	0.000000	0.000000	0.000000	0.000000	0.000000	0.000000	0.000000	0.000000	0.000000	0.000000	0.000000	0.000000	0.000000	0.000000	0.000000	0.000000	0.000000	0.000000	0.000000	0.000000	0.000000	0.000000	0.000000	0.000000	0.000000	0.000000	0.000000	0.000000	0.000000	0.000000	0.000000	0.000000	0.000000	0.000000	0.000000	0.000000	0.000000	0.000000	12.115570	7.745639	18.833010	46.603530	-4.641640	32.861980	0.011217	0.000000	0.000000	0.000000	0.000000	0.000000	0.000000	0.000000	0.000000	0.000000	0.000000	0.000000	0.000000	0.000000	0.000000	0.000000	0.000000	0.000000	0.000000	0.000000	0.000000	0.000000	0.000000	0.000000	0.000000	0.000000	0.000000	0.000000	0.000000	0.000000	0.000000	0.000000	0.000000	0.000000	0.000000	0.000000	0.000000	0.000000	0.000000	0.000000	0.000000	0.000000	0.000000	0.000000	0.000000	0.000000	0.000000	0.000000	0.000000	-12.962110	0.332415	2.266120	30.334610	-0.222914	-0.021602	-0.732798	-1.282400	-0.623405	0.000004	0.000000	0.000000	-1.545819	-0.003833	2.902530	16.378780	0.350780	-0.139908	-3.268784	1.848408	0.949415	0.000001	0.000000	0.000000
	4.5208	97.5311	-8.1915	-4.077141	-5.684466	-4.750766	0.000000	0.000000	0.000000	2.706528	0.834611	0.781538	8.982044	2.916919	2.446733	0.000000	0.000000	0.000000	0.000000	0.000000	0.000000	0.000000	0.000000	-13.711790	6.506644	-23.980450	-52.307490	-3.467579	-29.045950	-0.832405	0.000000	0.000000	0.000000	0.000000	0.000000	0.000000	0.000000	0.000000	0.000000	0.000000	0.000000	0.000000	0.000000	0.000000	0.000000	0.000000	0.000000	0.000000	0.000000	0.000000	0.000000	0.000000	0.000000	0.000000	0.000000	0.000000	0.000000	0.000000	0.000000	0.000000	0.000000	0.000000	0.000000	0.000000	0.000000	0.000000	0.000000	0.000000	0.000000	0.000000	0.000000	0.000000	0.000000	0.000000	0.000000	0.000000	0.000000	0.000000	0.000000	0.000000	12.118830	8.515383	17.872060	46.515720	-4.334415	34.089310	0.017598	0.000000	0.000000	0.000000	0.000000	0.000000	0.000000	0.000000	0.000000	0.000000	0.000000	0.000000	0.000000	0.000000	0.000000	0.000000	0.000000	0.000000	0.000000	0.000000	0.000000	0.000000	0.000000	0.000000	0.000000	0.000000	0.000000	0.000000	0.000000	0.000000	0.000000	0.000000	0.000000	0.000000	0.000000	0.000000	0.000000	0.000000	0.000000	0.000000	0.000000	0.000000	0.000000	0.000000	0.000000	0.000000	0.000000	0.000000	0.000000	-12.006440	-0.304347	1.968581	33.565510	-0.837046	0.366205	-0.696522	-1.329043	-0.645151	0.000004	0.000000	0.000000	-1.767848	0.005373	2.877136	16.686280	0.385439	0.016181	-3.263238	1.507724	0.774495	0.000001	0.000000	0.000000
